<svg width="29" height="28" viewBox="0 0 29 28" fill="none" xmlns="http://www.w3.org/2000/svg">
<g clip-path="url(#clip0_14_553)">
<path d="M7.5625 2.625C6.51821 2.625 5.51669 3.03984 4.77827 3.77827C4.03984 4.51669 3.625 5.51821 3.625 6.5625V21.4375C3.625 22.4818 4.03984 23.4833 4.77827 24.2217C5.51669 24.9602 6.51821 25.375 7.5625 25.375H22.4375C23.4818 25.375 24.4833 24.9602 25.2217 24.2217C25.9602 23.4833 26.375 22.4818 26.375 21.4375V6.5625C26.375 5.51821 25.9602 4.51669 25.2217 3.77827C24.4833 3.03984 23.4818 2.625 22.4375 2.625H7.5625ZM5.375 6.5625C5.375 5.98234 5.60547 5.42594 6.0157 5.0157C6.42594 4.60547 6.98234 4.375 7.5625 4.375H22.4375C23.0177 4.375 23.5741 4.60547 23.9843 5.0157C24.3945 5.42594 24.625 5.98234 24.625 6.5625V21.4375C24.625 22.0177 24.3945 22.5741 23.9843 22.9843C23.5741 23.3945 23.0177 23.625 22.4375 23.625H7.5625C6.98234 23.625 6.42594 23.3945 6.0157 22.9843C5.60547 22.5741 5.375 22.0177 5.375 21.4375V6.5625ZM21.125 8.75C21.125 8.51794 21.0328 8.29538 20.8687 8.13128C20.7046 7.96719 20.4821 7.875 20.25 7.875C20.0179 7.875 19.7954 7.96719 19.6313 8.13128C19.4672 8.29538 19.375 8.51794 19.375 8.75V19.25C19.375 19.4821 19.4672 19.7046 19.6313 19.8687C19.7954 20.0328 20.0179 20.125 20.25 20.125C20.4821 20.125 20.7046 20.0328 20.8687 19.8687C21.0328 19.7046 21.125 19.4821 21.125 19.25V8.75ZM15 14C15.2321 14 15.4546 14.0922 15.6187 14.2563C15.7828 14.4204 15.875 14.6429 15.875 14.875V19.25C15.875 19.4821 15.7828 19.7046 15.6187 19.8687C15.4546 20.0328 15.2321 20.125 15 20.125C14.7679 20.125 14.5454 20.0328 14.3813 19.8687C14.2172 19.7046 14.125 19.4821 14.125 19.25V14.875C14.125 14.6429 14.2172 14.4204 14.3813 14.2563C14.5454 14.0922 14.7679 14 15 14ZM10.625 11.375C10.625 11.1429 10.5328 10.9204 10.3687 10.7563C10.2046 10.5922 9.98206 10.5 9.75 10.5C9.51794 10.5 9.29538 10.5922 9.13128 10.7563C8.96719 10.9204 8.875 11.1429 8.875 11.375V19.25C8.875 19.4821 8.96719 19.7046 9.13128 19.8687C9.29538 20.0328 9.51794 20.125 9.75 20.125C9.98206 20.125 10.2046 20.0328 10.3687 19.8687C10.5328 19.7046 10.625 19.4821 10.625 19.25V11.375Z" fill="#FF9C05"/>
</g>
<defs>
<clipPath id="clip0_14_553">
<rect width="28" height="28" fill="white" transform="translate(0.507812)"/>
</clipPath>
</defs>
</svg>
