<svg
  width="80"
  height="79"
  viewBox="0 0 80 79"
  fill="none"
  xmlns="http://www.w3.org/2000/svg"
>
  <circle cx="40" cy="39.5" r="39.5" fill="#1679E8" />
  <rect
    x="7.36914"
    y="6.86719"
    width="65.2609"
    height="65.2609"
    rx="32.6304"
    fill="white"
  />
  <path
    d="M53.4832 43.883C50.0498 47.2997 45.1332 48.3497 40.8165 46.9997L32.9665 54.833C32.3998 55.4164 31.2832 55.7664 30.4832 55.6497L26.8498 55.1497C25.6498 54.983 24.5332 53.8497 24.3498 52.6497L23.8498 49.0164C23.7332 48.2164 24.1165 47.0997 24.6665 46.533L32.4998 38.6997C31.1665 34.3664 32.1998 29.4497 35.6332 26.033C40.5498 21.1164 48.5332 21.1164 53.4665 26.033C58.3998 30.9497 58.3998 38.9664 53.4832 43.883Z"
    stroke="#1679E8"
    stroke-width="2.5"
    stroke-miterlimit="10"
    stroke-linecap="round"
    stroke-linejoin="round"
  />
  <path
    d="M31.9832 48.1504L35.8165 51.9837"
    stroke="#1679E8"
    stroke-width="2.5"
    stroke-miterlimit="10"
    stroke-linecap="round"
    stroke-linejoin="round"
  />
  <path
    d="M44.6667 37.3333C46.0475 37.3333 47.1667 36.214 47.1667 34.8333C47.1667 33.4526 46.0475 32.3333 44.6667 32.3333C43.286 32.3333 42.1667 33.4526 42.1667 34.8333C42.1667 36.214 43.286 37.3333 44.6667 37.3333Z"
    stroke="#1679E8"
    stroke-width="2.5"
    stroke-linecap="round"
    stroke-linejoin="round"
  />
</svg>
