<svg width="355" height="274" viewBox="0 0 355 274" fill="none" xmlns="http://www.w3.org/2000/svg">
<path d="M319.334 253.07H295.826V253.254H319.334V253.07Z" fill="#EBEBEB"/>
<path d="M235.097 255.067H228.929V255.25H235.097V255.067Z" fill="#EBEBEB"/>
<path d="M295.116 246.26H281.496V246.444H295.116V246.26Z" fill="#EBEBEB"/>
<path d="M67.8915 247.493H37.2356V247.677H67.8915V247.493Z" fill="#EBEBEB"/>
<path d="M78.7086 247.493H74.2156V247.677H78.7086V247.493Z" fill="#EBEBEB"/>
<path d="M159.81 250.59H93.3164V250.774H159.81V250.59Z" fill="#EBEBEB"/>
<path d="M168.22 208.533H31.1667C30.093 208.531 29.0639 208.089 28.3054 207.303C27.5469 206.518 27.1208 205.453 27.1208 204.343V5.1536C27.1302 4.0499 27.5603 2.99459 28.3179 2.21689C29.0754 1.43918 30.0991 1.00189 31.1667 1H168.22C169.295 1 170.326 1.44148 171.086 2.22731C171.846 3.01314 172.273 4.07896 172.273 5.19029V204.343C172.273 205.454 171.846 206.52 171.086 207.306C170.326 208.092 169.295 208.533 168.22 208.533ZM31.1667 1.14677C30.1401 1.14871 29.1561 1.57172 28.4309 2.32293C27.7056 3.07415 27.2983 4.09219 27.2983 5.1536V204.343C27.2983 205.404 27.7056 206.422 28.4309 207.173C29.1561 207.925 30.1401 208.348 31.1667 208.35H168.22C169.247 208.348 170.232 207.925 170.958 207.174C171.685 206.423 172.094 205.405 172.096 204.343V5.1536C172.094 4.09152 171.685 3.07349 170.958 2.32249C170.232 1.57148 169.247 1.14871 168.22 1.14677H31.1667Z" fill="#EBEBEB"/>
<path d="M321.755 208.533H184.695C183.62 208.531 182.59 208.089 181.831 207.304C181.071 206.518 180.643 205.454 180.642 204.343V5.1536C180.653 4.04923 181.085 2.99393 181.843 2.21643C182.602 1.43892 183.626 1.00187 184.695 1H321.755C322.821 1.00382 323.843 1.44196 324.599 2.21946C325.355 2.99696 325.785 4.05117 325.794 5.1536V204.343C325.794 205.452 325.369 206.515 324.612 207.301C323.855 208.086 322.828 208.529 321.755 208.533ZM184.695 1.14677C183.667 1.14871 182.683 1.57148 181.956 2.32249C181.23 3.07349 180.821 4.09152 180.819 5.1536V204.343C180.821 205.405 181.23 206.423 181.956 207.174C182.683 207.925 183.667 208.348 184.695 208.35H321.755C322.782 208.348 323.767 207.925 324.493 207.174C325.22 206.423 325.629 205.405 325.631 204.343V5.1536C325.629 4.09152 325.22 3.07349 324.493 2.32249C323.767 1.57148 322.782 1.14871 321.755 1.14677H184.695Z" fill="#EBEBEB"/>
<path d="M354.896 241.263H0V241.446H354.896V241.263Z" fill="#EBEBEB"/>
<path d="M204.405 183.758H151.285V234.937H204.405V183.758Z" fill="#E6E6E6"/>
<path d="M159.731 236.544H152.953V241.013H159.731V236.544Z" fill="#E0E0E0"/>
<path d="M312.287 183.758H204.413V234.438H312.287V183.758Z" fill="#E6E6E6"/>
<path d="M320.513 179.994H313.735V241.021H320.513V179.994Z" fill="#E6E6E6"/>
<path d="M256.426 187.794H209.665V232.075H256.426V187.794Z" fill="#F5F5F5"/>
<path d="M217.565 232.075H230.05L234.55 187.794H222.065L217.565 232.075Z" fill="#FAFAFA"/>
<path d="M233.245 232.075H235.729L240.229 187.794H237.745L233.245 232.075Z" fill="#FAFAFA"/>
<path d="M203.105 187.794H156.344V232.075H203.105V187.794Z" fill="#F5F5F5"/>
<path d="M310.264 187.794H263.503V232.075H310.264V187.794Z" fill="#F5F5F5"/>
<path d="M312.01 179.994H149.354V241.021H152.974V237.601H310.179V241.021H313.799V179.994H312.01ZM152.974 185.512H202.66V206.713H152.974V185.512ZM152.974 232.075V209.869H202.66V232.075H152.974ZM256.434 232.075H206.28V185.512H256.434V232.075ZM310.2 232.075H260.046V209.869H310.179L310.2 232.075ZM310.2 206.713H260.046V185.512H310.179L310.2 206.713Z" fill="#F0F0F0"/>
<path d="M178.321 195.294C179.52 195.294 180.493 194.289 180.493 193.049C180.493 191.809 179.52 190.803 178.321 190.803C177.121 190.803 176.149 191.809 176.149 193.049C176.149 194.289 177.121 195.294 178.321 195.294Z" fill="#EBEBEB"/>
<path d="M178.321 195.294C177.906 195.293 177.5 195.169 177.152 194.936C176.803 194.703 176.527 194.372 176.355 193.981C176.201 194.323 176.133 194.7 176.158 195.076C176.182 195.453 176.297 195.817 176.494 196.135C176.69 196.453 176.961 196.715 177.281 196.896C177.601 197.078 177.96 197.173 178.325 197.173C178.69 197.173 179.049 197.078 179.369 196.896C179.689 196.715 179.96 196.453 180.156 196.135C180.352 195.817 180.468 195.453 180.492 195.076C180.516 194.7 180.448 194.323 180.294 193.981C180.122 194.372 179.844 194.704 179.494 194.937C179.144 195.17 178.737 195.294 178.321 195.294Z" fill="#E0E0E0"/>
<path d="M180.493 219.145C180.493 219.589 180.365 220.023 180.127 220.392C179.888 220.761 179.549 221.049 179.152 221.219C178.755 221.389 178.318 221.434 177.897 221.347C177.476 221.26 177.089 221.046 176.785 220.732C176.481 220.418 176.274 220.018 176.191 219.583C176.107 219.147 176.15 218.696 176.314 218.285C176.479 217.875 176.757 217.524 177.114 217.277C177.471 217.031 177.891 216.899 178.321 216.899C178.897 216.899 179.449 217.136 179.857 217.557C180.264 217.978 180.493 218.549 180.493 219.145Z" fill="#EBEBEB"/>
<path d="M178.321 221.39C177.905 221.394 177.497 221.271 177.148 221.038C176.799 220.804 176.523 220.47 176.355 220.077C176.201 220.419 176.133 220.795 176.158 221.172C176.182 221.548 176.297 221.913 176.494 222.231C176.69 222.549 176.961 222.811 177.281 222.992C177.601 223.173 177.96 223.268 178.325 223.268C178.69 223.268 179.049 223.173 179.369 222.992C179.689 222.811 179.96 222.549 180.156 222.231C180.352 221.913 180.468 221.548 180.492 221.172C180.516 220.795 180.448 220.419 180.294 220.077C180.126 220.471 179.849 220.806 179.499 221.04C179.148 221.273 178.738 221.395 178.321 221.39Z" fill="#E0E0E0"/>
<path d="M287.941 195.294C289.14 195.294 290.112 194.289 290.112 193.049C290.112 191.809 289.14 190.803 287.941 190.803C286.741 190.803 285.769 191.809 285.769 193.049C285.769 194.289 286.741 195.294 287.941 195.294Z" fill="#EBEBEB"/>
<path d="M287.941 195.294C287.525 195.293 287.118 195.169 286.768 194.936C286.419 194.703 286.141 194.372 285.967 193.981C285.836 194.273 285.768 194.591 285.769 194.913C285.765 195.25 285.836 195.584 285.975 195.889C286.113 196.195 286.317 196.464 286.57 196.677C286.823 196.89 287.119 197.041 287.436 197.119C287.754 197.197 288.084 197.201 288.403 197.129C288.722 197.057 289.021 196.912 289.278 196.704C289.535 196.497 289.743 196.232 289.888 195.929C290.032 195.627 290.109 195.295 290.112 194.957C290.116 194.62 290.045 194.286 289.907 193.981C289.735 194.372 289.459 194.703 289.11 194.936C288.762 195.169 288.356 195.293 287.941 195.294Z" fill="#E0E0E0"/>
<path d="M252.018 211.234C252.016 211.677 251.888 212.111 251.648 212.479C251.409 212.847 251.069 213.134 250.672 213.303C250.275 213.472 249.839 213.515 249.418 213.428C248.997 213.34 248.611 213.126 248.307 212.812C248.004 212.497 247.798 212.097 247.715 211.662C247.632 211.226 247.675 210.775 247.84 210.365C248.004 209.955 248.283 209.605 248.64 209.359C248.997 209.112 249.417 208.981 249.846 208.981C250.132 208.981 250.415 209.039 250.679 209.152C250.943 209.266 251.182 209.432 251.384 209.641C251.586 209.85 251.746 210.099 251.854 210.372C251.963 210.645 252.019 210.938 252.018 211.234Z" fill="#EBEBEB"/>
<path d="M249.846 213.479C249.43 213.478 249.023 213.353 248.674 213.121C248.324 212.888 248.046 212.556 247.873 212.166C247.741 212.458 247.673 212.776 247.674 213.098C247.671 213.435 247.741 213.769 247.88 214.074C248.018 214.379 248.222 214.649 248.475 214.861C248.728 215.074 249.024 215.226 249.342 215.304C249.659 215.382 249.989 215.386 250.308 215.314C250.627 215.242 250.926 215.097 251.183 214.889C251.44 214.681 251.649 214.417 251.793 214.114C251.938 213.812 252.014 213.479 252.018 213.142C252.021 212.805 251.951 212.471 251.812 212.166C251.641 212.556 251.364 212.888 251.015 213.121C250.667 213.354 250.261 213.478 249.846 213.479Z" fill="#E0E0E0"/>
<path d="M290.112 219.145C290.112 219.589 289.985 220.023 289.746 220.392C289.508 220.761 289.169 221.049 288.772 221.219C288.375 221.389 287.938 221.434 287.517 221.347C287.095 221.26 286.708 221.046 286.405 220.732C286.101 220.418 285.894 220.018 285.81 219.583C285.726 219.147 285.769 218.696 285.934 218.285C286.098 217.875 286.377 217.524 286.734 217.277C287.091 217.031 287.511 216.899 287.941 216.899C288.517 216.899 289.069 217.136 289.476 217.557C289.884 217.978 290.112 218.549 290.112 219.145Z" fill="#EBEBEB"/>
<path d="M287.941 221.39C287.525 221.39 287.117 221.267 286.767 221.034C286.417 220.801 286.14 220.468 285.968 220.077C285.811 220.42 285.74 220.799 285.762 221.178C285.785 221.557 285.9 221.924 286.096 222.245C286.293 222.566 286.565 222.831 286.887 223.014C287.208 223.197 287.57 223.293 287.937 223.293C288.305 223.293 288.666 223.197 288.988 223.014C289.31 222.831 289.582 222.566 289.778 222.245C289.975 221.924 290.09 221.557 290.112 221.178C290.135 220.799 290.064 220.42 289.907 220.077C289.739 220.47 289.464 220.804 289.114 221.038C288.765 221.271 288.357 221.394 287.941 221.39Z" fill="#E0E0E0"/>
<path d="M101.323 36.7165H56.1018V97.4574H101.323V36.7165Z" fill="#F5F5F5"/>
<path d="M97.8376 41.3912H59.5798V92.7828H97.8376V41.3912Z" fill="#EBEBEB"/>
<path d="M95.4454 44.6054H61.9717V89.5685H95.4454V44.6054Z" fill="#EBEBEB"/>
<path d="M73.7897 70.0114L61.9717 82.2373V89.5685H92.7056L73.7897 70.0114Z" fill="#FAFAFA"/>
<path d="M90.8532 60.8529C90.8532 61.7934 90.5834 62.7128 90.078 63.4948C89.5726 64.2769 88.8543 64.8864 88.0139 65.2463C87.1734 65.6062 86.2486 65.7004 85.3564 65.5169C84.4642 65.3334 83.6447 64.8805 83.0014 64.2155C82.3582 63.5504 81.9201 62.7031 81.7427 61.7806C81.5652 60.8582 81.6563 59.902 82.0044 59.0331C82.3525 58.1642 82.9421 57.4215 83.6984 56.899C84.4548 56.3764 85.3441 56.0975 86.2537 56.0975C87.4736 56.0975 88.6435 56.5986 89.506 57.4904C90.3686 58.3822 90.8532 59.5917 90.8532 60.8529Z" fill="white"/>
<path d="M40.0964 168.89C40.0964 162.645 47.1943 157.354 57.0249 155.549L47.3221 143.558H81.6263L71.9022 155.549C81.7257 157.354 88.8378 162.645 88.8378 168.89C88.8378 175.774 80.2138 226.087 68.843 237.139L72.4274 241.542H56.4997L60.0913 237.139C48.7204 226.087 40.0964 175.774 40.0964 168.89Z" fill="#F0F0F0"/>
<path d="M77.6016 220.48C73.5132 217.413 70.6953 211.05 70.6953 203.675C70.6953 193.313 76.253 184.903 83.1167 184.903C84.2715 184.918 85.4123 185.167 86.474 185.637C84.5078 196.204 81.4203 209.671 77.6016 220.48Z" fill="#E0E0E0"/>
<path d="M47.5565 158.822C52.1204 161.596 55.3642 168.362 55.3642 176.229C55.3642 185.872 50.5518 193.841 44.3624 194.869C41.7007 182.599 40.1391 171.818 40.1391 168.89C40.0966 164.935 42.9499 161.368 47.5565 158.822Z" fill="#E6E6E6"/>
<path d="M281.893 114.534C282.137 114.534 282.372 114.635 282.545 114.814C282.718 114.992 282.815 115.235 282.815 115.488V175.906C282.815 176.159 282.718 176.402 282.545 176.581C282.372 176.76 282.137 176.86 281.893 176.86V114.534Z" fill="#E0E0E0"/>
<path d="M281.9 114.534H180.925V176.86H281.9V114.534Z" fill="#EBEBEB"/>
<path d="M280.232 116.251H182.586V175.143H280.232V116.251Z" fill="#E0E0E0"/>
<path opacity="0.1" d="M221.178 175.143H235.928L244.949 116.251H230.2L221.178 175.143Z" fill="#FAFAFA"/>
<path opacity="0.2" d="M238.554 175.143H241.861L250.883 116.251H247.575L238.554 175.143Z" fill="#FAFAFA"/>
<path d="M244.203 176.86V179.062H247.206C247.381 179.062 247.555 179.026 247.718 178.956C247.88 178.886 248.028 178.784 248.152 178.655C248.276 178.526 248.374 178.373 248.44 178.205C248.507 178.037 248.541 177.856 248.54 177.675V176.831L244.203 176.86Z" fill="#E0E0E0"/>
<path d="M244.502 179.091H217.359C216.795 179.091 216.253 178.859 215.854 178.446C215.454 178.033 215.23 177.473 215.23 176.889H246.688C246.688 177.184 246.631 177.475 246.521 177.746C246.41 178.017 246.248 178.262 246.044 178.467C245.841 178.672 245.599 178.833 245.334 178.941C245.069 179.048 244.786 179.099 244.502 179.091Z" fill="#F0F0F0"/>
<path d="M177.448 274C253.454 274 315.069 270.281 315.069 265.693C315.069 261.105 253.454 257.386 177.448 257.386C101.442 257.386 39.8264 261.105 39.8264 265.693C39.8264 270.281 101.442 274 177.448 274Z" fill="#F5F5F5"/>
<path d="M252.693 257.026L252.536 261.767L248.086 262.156L247.887 256.96L252.693 257.026Z" fill="#B55B52"/>
<path d="M245.588 262.662C245.053 262.736 244.51 262.605 244.062 262.295C244.009 262.215 243.98 262.12 243.98 262.023C243.98 261.926 244.009 261.832 244.062 261.752C244.102 261.677 244.156 261.612 244.22 261.559C244.285 261.506 244.359 261.467 244.438 261.444C245.297 261.172 247.121 262.178 247.199 262.236C247.221 262.248 247.239 262.266 247.25 262.288C247.261 262.311 247.266 262.336 247.263 262.361C247.257 262.387 247.245 262.41 247.227 262.429C247.21 262.449 247.188 262.463 247.164 262.471C246.645 262.582 246.118 262.646 245.588 262.662ZM244.743 261.649C244.664 261.651 244.585 261.663 244.509 261.686C244.459 261.696 244.412 261.718 244.371 261.75C244.331 261.781 244.298 261.822 244.275 261.869C244.19 262.031 244.218 262.104 244.275 262.148C244.523 262.486 245.822 262.456 246.781 262.31C246.138 261.953 245.434 261.728 244.708 261.649H244.743Z" fill="#0F9D59"/>
<path d="M247.1 262.464H247.05C246.433 262.2 245.162 261.077 245.254 260.475C245.254 260.328 245.368 260.152 245.701 260.108C245.827 260.086 245.955 260.093 246.077 260.127C246.2 260.161 246.314 260.222 246.411 260.306C247.086 260.842 247.256 262.28 247.263 262.346C247.266 262.368 247.263 262.39 247.254 262.409C247.245 262.429 247.231 262.445 247.213 262.456C247.198 262.471 247.178 262.479 247.158 262.48C247.137 262.482 247.117 262.476 247.1 262.464ZM245.787 260.343H245.716C245.503 260.343 245.489 260.46 245.481 260.49C245.481 260.849 246.291 261.73 246.901 262.104C246.831 261.503 246.583 260.939 246.191 260.49C246.068 260.394 245.919 260.343 245.765 260.343H245.787Z" fill="#0F9D59"/>
<path d="M247.631 261.708L253.245 261.554C253.349 261.552 253.451 261.587 253.533 261.652C253.615 261.717 253.674 261.809 253.7 261.913L254.835 266.61C254.885 266.809 254.856 267.021 254.755 267.199C254.654 267.376 254.489 267.505 254.296 267.557H254.133C252.11 267.557 250.307 267.505 247.745 267.557C244.771 267.637 245.537 267.982 242.066 268.129C239.937 268.217 239.504 265.751 240.398 265.605C244.48 264.959 244.87 263.667 246.41 262.112C246.756 261.827 247.19 261.683 247.631 261.708Z" fill="#263238"/>
<path d="M223.046 253.702L221.427 262.368L216.849 260.783L218.382 252.513L223.046 253.702Z" fill="#B55B52"/>
<path d="M214.087 259.631C213.469 259.433 212.873 259.117 212.752 258.78C212.724 258.686 212.725 258.586 212.754 258.493C212.784 258.399 212.84 258.318 212.916 258.259C213.041 258.145 213.203 258.084 213.37 258.09C214.257 258.09 215.677 259.682 215.741 259.749C215.755 259.77 215.762 259.796 215.762 259.822C215.762 259.848 215.755 259.874 215.741 259.895C215.729 259.918 215.712 259.936 215.69 259.948C215.669 259.959 215.644 259.964 215.62 259.961C215.101 259.895 214.588 259.785 214.087 259.631ZM213.597 258.391C213.522 258.363 213.443 258.348 213.363 258.347C213.313 258.34 213.262 258.345 213.214 258.362C213.166 258.378 213.122 258.406 213.086 258.442C212.951 258.567 212.958 258.648 212.979 258.699C213.114 259.103 214.349 259.506 215.3 259.682C214.818 259.143 214.239 258.705 213.597 258.391Z" fill="#0F9D59"/>
<path d="M215.613 259.954C215.606 259.957 215.599 259.959 215.592 259.959C215.584 259.959 215.577 259.957 215.571 259.954C215.06 259.499 214.201 258.017 214.478 257.481C214.534 257.349 214.683 257.209 215.01 257.275C215.13 257.3 215.244 257.348 215.345 257.419C215.446 257.49 215.533 257.581 215.599 257.686C216.067 258.42 215.791 259.837 215.784 259.888C215.777 259.91 215.766 259.929 215.752 259.946C215.737 259.962 215.719 259.975 215.698 259.983L215.613 259.954ZM215.024 257.51H214.96C214.74 257.466 214.705 257.547 214.683 257.576C214.556 257.914 215.074 259.044 215.571 259.587C215.685 258.991 215.618 258.373 215.379 257.819C215.298 257.683 215.172 257.584 215.024 257.54V257.51Z" fill="#0F9D59"/>
<path d="M216.344 259.411L221.725 261.114C221.822 261.146 221.907 261.211 221.965 261.299C222.023 261.387 222.05 261.492 222.044 261.598L221.675 266.427C221.669 266.53 221.643 266.631 221.598 266.723C221.554 266.816 221.493 266.899 221.418 266.967C221.343 267.035 221.255 267.088 221.16 267.121C221.066 267.154 220.965 267.167 220.866 267.16H220.71C218.786 266.515 217.09 265.854 214.676 265.091C211.837 264.188 212.448 264.775 209.09 263.763C207.06 263.146 207.394 260.659 208.288 260.827C212.348 261.561 213.122 260.468 215.06 259.499C215.462 259.305 215.92 259.274 216.344 259.411Z" fill="#263238"/>
<path opacity="0.2" d="M222.08 259.051L222.427 257.004L217.792 255.698L217.409 257.752L222.08 259.051Z" fill="black"/>
<path opacity="0.2" d="M252.636 259.506L252.692 256.586L247.916 256.659L247.958 259.506H252.636Z" fill="black"/>
<path d="M255.447 160.517L234.004 156.129L230.781 170.608L222.321 208.614L215.244 255.896L223.208 257.774L233.727 210.58L244.388 174.945L255.901 175.759L255.447 160.517Z" fill="#263238"/>
<path d="M215.244 253.305L224.379 255.419L223.393 258.141L214.662 255.852L215.244 253.305Z" fill="#0F9D59"/>
<path d="M253.296 209.883L256.547 175.282C256.965 171.202 256.903 167.084 256.362 163.02L256 162.924L250.854 162.234L243.046 164.245L241.506 209.34C241.485 209.704 241.485 210.07 241.506 210.434L245.176 257.54L254.105 257.114L253.296 209.883Z" fill="#263238"/>
<path opacity="0.3" d="M242.705 180.529L241.286 173.528L240.995 186.29L242.705 180.529Z" fill="black"/>
<path d="M234.991 128.83L227.041 139.39C226.613 143.815 226.928 148.284 227.971 152.599C227.971 152.599 230.902 154.8 230.81 156.342C230.718 157.883 231.768 161.479 231.768 161.479L229.433 162.711L226.849 162.205L225.82 158.455L225.352 153.949C225.352 153.949 218.963 140.865 222.512 135.434C225.061 131.734 227.788 128.168 230.682 124.749L234.991 128.83Z" fill="#B55B52"/>
<path d="M237.333 123.685C237.333 123.685 237.518 127.934 230.392 135.985L223.62 130.385L227.091 126.107C229.054 123.688 231.858 122.164 234.899 121.865L237.333 123.685Z" fill="#0F9D59"/>
<path opacity="0.2" d="M235.338 129.248L235.934 128.125C234.252 129.292 229.653 133.702 229.198 134.605L230.568 135.779C232.393 133.796 233.993 131.605 235.338 129.248Z" fill="black"/>
<path d="M229.787 137.658L230.909 136.08L223.712 129.879L222.541 131.237L229.787 137.658Z" fill="#0F9D59"/>
<path opacity="0.5" d="M229.787 137.658L230.909 136.08L223.712 129.879L222.541 131.237L229.787 137.658Z" fill="white"/>
<path d="M255.525 148.1C255.873 141.885 257.094 123.957 257.094 123.957C255.476 123.134 253.774 122.503 252.019 122.078C249.967 123.194 245.396 125.579 243.849 125.571C242.472 125.571 241.521 122.768 241.067 121.007C238.872 121.116 236.688 121.403 234.536 121.865C233.345 126.282 232.69 130.835 232.585 135.419C232.443 141.665 232.365 151.285 232.819 161.361C232.819 161.361 237.44 164.862 248.299 164.517C251.032 164.409 253.738 163.916 256.341 163.049C256.341 163.049 255.333 151.99 255.525 148.1Z" fill="#0F9D59"/>
<path d="M262.885 129.695L267.754 134.099C267.754 134.099 272.013 127.78 275.178 123.627C275.178 123.627 274.398 120.838 275.853 119.128L276.562 116.538L278.848 115.804L281.985 120.009L278.124 125.27C278.124 125.27 271.345 140.439 268.946 140.828C266.547 141.217 259.669 134.693 259.669 134.693L262.885 129.695Z" fill="#B55B52"/>
<path d="M253.736 122.856C253.736 122.856 257.001 122.643 265.022 129.739L259.841 136.924L254.773 133.321L251.564 125.916L253.736 122.856Z" fill="#0F9D59"/>
<path d="M266.662 130.305L265.1 129.196L259.344 136.851L260.699 138.01L266.662 130.305Z" fill="#0F9D59"/>
<path opacity="0.5" d="M266.662 130.305L265.1 129.196L259.344 136.851L260.699 138.01L266.662 130.305Z" fill="white"/>
<path opacity="0.2" d="M256.709 129.952C256.617 131.339 256.51 132.888 256.404 134.48L258.207 135.764C257.987 133.761 257.482 131.803 256.709 129.952Z" fill="black"/>
<path d="M250.273 121.667C248.761 119.95 249.96 113.022 249.96 113.022L244.821 115.158C244.821 115.158 244.417 119.943 243.139 120.955C242.635 121.352 241.862 120.955 241.194 120.999L242.706 125.49L246.142 125.733L252.324 122.159C251.692 121.983 250.784 122.239 250.273 121.667Z" fill="#B55B52"/>
<path opacity="0.1" d="M244.282 118.475C245.538 118.328 246.728 117.815 247.712 116.995C248.696 116.175 249.434 115.082 249.84 113.844C249.911 113.338 249.961 113.022 249.961 113.022L244.822 115.158C244.715 116.275 244.535 117.383 244.282 118.475Z" fill="black"/>
<path d="M241.812 120.647L244.197 125.674L240.456 128.088L240.137 120.735L241.812 120.647Z" fill="#0F9D59"/>
<path opacity="0.5" d="M241.812 120.647L244.197 125.674L240.456 128.088L240.137 120.735L241.812 120.647Z" fill="white"/>
<path d="M251.791 121.557L243.543 125.476L246.525 129.277L253.296 122.21L251.791 121.557Z" fill="#0F9D59"/>
<path opacity="0.5" d="M251.791 121.557L243.543 125.476L246.525 129.277L253.296 122.21L251.791 121.557Z" fill="white"/>
<path d="M241.577 98.1619C241.344 97.6046 241.284 96.9864 241.405 96.3922C241.525 95.7981 241.822 95.2573 242.252 94.8444C242.683 94.4315 243.226 94.1668 243.808 94.0867C244.39 94.0066 244.982 94.1151 245.502 94.3972C246.65 93.6909 247.943 93.2737 249.276 93.1793C250.609 93.085 251.945 93.3162 253.175 93.8542C254.308 94.4286 255.284 95.2867 256.014 96.3505C256.744 97.4143 257.205 98.65 257.356 99.9451C258.669 101.193 260.081 102.881 260.507 104.656C260.779 105.559 260.754 106.529 260.436 107.416C260.264 107.85 259.955 108.21 259.56 108.44C259.164 108.669 258.705 108.753 258.257 108.678C258.129 109.456 257.787 110.179 257.27 110.759C256.754 111.34 256.086 111.754 255.347 111.951L249.484 114.446H249.853C246.872 114.446 243.962 112.377 242.379 109.764C240.796 107.152 240.25 103.996 240.2 100.914C240.179 99.813 240.527 98.4407 241.577 98.1619Z" fill="#263238"/>
<path d="M253.843 106.755C252.139 111.415 251.515 113.419 248.47 115.114C243.884 117.668 238.724 114.483 239.036 109.397C239.327 104.818 242.067 97.9417 247.121 97.5161C248.236 97.4125 249.358 97.6049 250.382 98.0749C251.405 98.545 252.295 99.2772 252.968 100.202C253.641 101.127 254.074 102.215 254.228 103.361C254.381 104.508 254.248 105.676 253.843 106.755Z" fill="#B55B52"/>
<path d="M246.148 105.662C246.028 106.043 245.737 106.293 245.495 106.22C245.254 106.146 245.148 105.765 245.254 105.376C245.361 104.987 245.666 104.737 245.907 104.811C246.148 104.884 246.234 105.288 246.148 105.662Z" fill="#263238"/>
<path d="M241.918 104.319C241.797 104.715 241.506 104.957 241.265 104.884C241.023 104.811 240.917 104.422 241.03 104.04C241.144 103.658 241.442 103.402 241.683 103.482C241.925 103.563 242.038 103.937 241.918 104.319Z" fill="#263238"/>
<path d="M243.012 105.434C242.416 106.213 241.718 106.902 240.939 107.482C241.09 107.681 241.28 107.845 241.496 107.962C241.713 108.08 241.951 108.149 242.195 108.164L243.012 105.434Z" fill="#842828"/>
<path d="M248.107 105.324C248.059 105.317 248.014 105.294 247.98 105.258C247.945 105.222 247.922 105.176 247.915 105.126C247.804 104.757 247.621 104.415 247.377 104.122C247.133 103.829 246.833 103.591 246.496 103.424C246.467 103.411 246.441 103.392 246.42 103.369C246.398 103.346 246.382 103.318 246.371 103.288C246.36 103.257 246.356 103.225 246.358 103.193C246.36 103.161 246.368 103.129 246.382 103.101C246.394 103.073 246.412 103.048 246.434 103.027C246.455 103.006 246.481 102.991 246.509 102.98C246.537 102.97 246.566 102.966 246.596 102.967C246.625 102.969 246.654 102.977 246.68 102.991C247.086 103.19 247.446 103.477 247.735 103.833C248.024 104.189 248.236 104.605 248.355 105.053C248.366 105.114 248.352 105.177 248.318 105.228C248.283 105.279 248.23 105.314 248.171 105.324H248.1H248.107Z" fill="#263238"/>
<path d="M241.251 101.897C241.199 101.892 241.151 101.87 241.113 101.833C241.076 101.796 241.052 101.746 241.045 101.693C241.039 101.64 241.05 101.586 241.077 101.541C241.104 101.495 241.145 101.46 241.194 101.442C241.533 101.281 241.905 101.21 242.277 101.236C242.649 101.262 243.008 101.383 243.323 101.589C243.348 101.605 243.37 101.625 243.387 101.65C243.404 101.674 243.416 101.702 243.423 101.731C243.429 101.761 243.43 101.791 243.425 101.821C243.42 101.851 243.41 101.879 243.394 101.905C243.36 101.955 243.308 101.989 243.25 102C243.191 102.011 243.131 101.998 243.082 101.963C242.832 101.813 242.551 101.726 242.263 101.709C241.974 101.693 241.686 101.747 241.421 101.868C241.397 101.886 241.369 101.898 241.339 101.903C241.31 101.909 241.279 101.906 241.251 101.897Z" fill="#263238"/>
<path d="M241.846 109.83C243.077 110.106 244.354 110.066 245.565 109.713C245.565 109.713 245.523 112.222 242.471 111.804L241.903 111.701C242.041 111.083 242.021 110.438 241.846 109.83Z" fill="#263238"/>
<path d="M242.352 109.918V110.498C243.345 110.797 244.403 110.784 245.389 110.461C245.481 110.227 245.536 109.979 245.553 109.727C244.515 110.049 243.418 110.114 242.352 109.918Z" fill="white"/>
<path d="M245.07 111.034C244.811 111.002 244.55 110.99 244.289 110.997C243.253 110.997 242.422 111.371 242.309 111.775H242.472C243.891 111.995 244.658 111.562 245.07 111.034Z" fill="#C13B37"/>
<path d="M253.999 110.806C253.455 111.565 252.644 112.071 251.742 112.215C250.542 112.384 250.102 111.239 250.563 110.146C250.989 109.162 252.125 107.893 253.275 108.194C253.67 108.314 254.003 108.592 254.2 108.967C254.397 109.341 254.442 109.781 254.325 110.19C254.261 110.417 254.149 110.627 253.999 110.806Z" fill="#B55B52"/>
<path d="M251.706 96.8043C252.201 96.8253 252.68 96.9855 253.093 97.2674C253.506 97.5493 253.836 97.9423 254.049 98.404C254.517 99.2993 255.986 101.648 255.994 102.668C255.994 105.42 256.114 106.836 252.509 109.353C252.797 108.741 252.953 108.073 252.968 107.392C252.983 106.712 252.855 106.037 252.594 105.412C251.962 105.148 251.288 105.2 250.933 104.59C250.578 103.981 250.663 102.389 251.337 102.264C250.145 102.205 249.13 101.09 248.661 99.9525C248.092 100.118 247.492 100.137 246.913 100.01C246.334 99.8818 245.794 99.6103 245.34 99.2186C244.97 99.6491 244.487 99.9579 243.949 100.107C243.412 100.255 242.844 100.237 242.316 100.055C242.992 98.256 244.314 96.7966 246.007 95.9823C246.834 95.6637 247.714 95.5203 248.596 95.5606C249.477 95.6009 250.342 95.8242 251.139 96.2172L251.706 96.8043Z" fill="#263238"/>
<path d="M280.552 113.118C280.552 113.118 281.191 112.222 281.517 113.008C281.688 113.419 278.877 118.145 278.877 118.145L277.699 117.492L280.552 113.118Z" fill="#B55B52"/>
<path d="M244.402 254.186L254.403 253.621L254.29 257.07L244.658 257.297L244.402 254.186Z" fill="#0F9D59"/>
<path d="M151.029 92.5846C151.449 93.666 151.977 94.699 152.605 95.6667C152.475 95.8651 152.293 96.0213 152.081 96.1174C151.869 96.2135 151.635 96.2455 151.405 96.2098L151.029 92.5846Z" fill="#DF5753"/>
<path d="M150.937 90.9334C151.264 90.8967 151.569 91.2857 151.647 91.7994C151.725 92.313 151.477 92.7534 151.158 92.7827C150.838 92.8121 150.533 92.4378 150.448 91.9241C150.363 91.4104 150.618 90.9701 150.937 90.9334Z" fill="#263238"/>
<path d="M136.429 100.143C137.522 103.813 138.927 110.593 136.635 113.353C136.635 113.353 138.019 117.022 144.755 116.288C152.158 115.488 147.899 112.112 147.899 112.112C143.761 111.547 143.548 108.443 143.96 105.449L136.429 100.143Z" fill="#E58A7B"/>
<path d="M133.597 91.8213C134.605 98.0297 134.903 100.686 138.282 103.563C143.371 107.9 150.533 105.266 151.349 98.903C152.059 93.1276 151.2 85.0552 145.004 83.2059C140.603 81.863 135.109 83.3674 133.81 87.9173C133.449 89.1842 133.376 90.5204 133.597 91.8213Z" fill="#B55B52"/>
<path d="M134.541 114.013C134.46 113.651 134.516 113.27 134.697 112.949C134.877 112.628 135.169 112.389 135.513 112.281C138.203 111.547 144.336 109.896 147.516 110.006C149.879 110.094 150.632 111.43 150.845 112.567C150.913 112.936 150.837 113.318 150.634 113.629C150.43 113.94 150.115 114.155 149.759 114.226H149.538L135.939 115.048C135.628 115.057 135.324 114.961 135.071 114.774C134.818 114.587 134.632 114.32 134.541 114.013Z" fill="#407BFF"/>
<path opacity="0.6" d="M134.541 114.013C134.46 113.651 134.516 113.27 134.697 112.949C134.877 112.628 135.169 112.389 135.513 112.281C138.203 111.547 144.336 109.896 147.516 110.006C149.879 110.094 150.632 111.43 150.845 112.567C150.913 112.936 150.837 113.318 150.634 113.629C150.43 113.94 150.115 114.155 149.759 114.226H149.538L135.939 115.048C135.628 115.057 135.324 114.961 135.071 114.774C134.818 114.587 134.632 114.32 134.541 114.013Z" fill="black"/>
<path d="M131.077 120.618L127.145 132.359L136.28 144.952L132.731 147.411C132.731 147.411 122.389 138.832 119.912 133.893C119.358 132.778 126.3 116.347 126.3 116.347L131.077 120.618Z" fill="#B55B52"/>
<path d="M129.402 129.505L119.876 124.551C119.876 124.551 124.554 113.353 127.741 112.149C138.757 109.28 129.402 129.505 129.402 129.505Z" fill="#407BFF"/>
<path d="M136.28 144.952L140.851 147.638C140.851 147.638 142.547 152.291 141.653 152.687C140.759 153.083 137.465 154.235 137.465 154.235C137.465 154.235 135.492 151.41 134.626 150.742C133.76 150.074 132.724 147.411 132.724 147.411L136.28 144.952Z" fill="#B55B52"/>
<path d="M158.39 112.648C158.39 112.648 157.013 119.766 159.327 151.072L135.137 150.984C134.491 140.476 133.249 136.814 126.25 115.943C129.647 114.828 133.118 113.97 136.635 113.375C140.355 112.683 144.12 112.276 147.899 112.156C152.79 112.083 158.39 112.648 158.39 112.648Z" fill="#407BFF"/>
<path d="M165.87 97.5161C165.87 97.5161 165.87 96.496 166.53 96.8996C166.878 97.1198 167.197 102.205 167.197 102.205L165.977 102.367L165.87 97.5161Z" fill="#B55B52"/>
<path d="M161.122 117.161L164.671 123.216C165.639 118.622 166.281 113.962 166.595 109.272C166.595 109.272 165.885 107.518 164.976 104.869L165.175 101.706C165.185 101.541 165.23 101.38 165.307 101.234C165.383 101.088 165.49 100.962 165.62 100.864C165.749 100.766 165.898 100.699 166.055 100.667C166.213 100.635 166.375 100.639 166.531 100.679L170.08 101.611C170.339 101.679 170.565 101.842 170.715 102.071C170.866 102.299 170.93 102.577 170.896 102.851L170.058 109.228C170.058 109.228 171.591 130.738 167.169 131.655C162.471 132.587 156.863 120.258 156.863 120.258L161.122 117.161Z" fill="#B55B52"/>
<path opacity="0.2" d="M158.049 127.076L153.08 118.042L154.989 126.848C156.153 130.422 158.105 129.028 158.049 127.076Z" fill="black"/>
<path d="M162.024 115.15C164.366 120.287 165.061 121.117 165.061 121.117L158.049 127.076C158.049 127.076 149.588 114.842 150.411 111.437C150.915 109.368 156.473 105.031 162.024 115.15Z" fill="#407BFF"/>
<path d="M149.397 86.8605C149.689 88.7007 149.481 90.5887 148.793 92.313C147.651 94.9182 147.857 99.7396 149.56 101.978C150.93 103.776 153.286 104.392 154.876 105.992C156.466 107.592 157.417 109.911 156.459 112.208C155.6 114.248 151.775 113.8 150.703 115.701C149.241 118.269 149.929 123.304 146.558 123.34C141.759 123.428 140.617 119.04 137.288 119.832C133.959 120.625 128.905 121.917 127.578 116.611C126.762 113.353 128.962 111.048 129.281 107.981C129.516 105.779 128.075 104.062 127.762 101.978C127.601 100.901 127.647 99.8026 127.898 98.7446C128.149 97.6866 128.6 96.6905 129.225 95.8135C130.133 94.5293 131.354 93.612 131.822 92.0048C132.213 90.7499 132.454 89.451 132.823 88.1815C133.143 86.8402 133.815 85.6167 134.766 84.6465C135.717 83.6762 136.909 82.9973 138.211 82.6849C146.153 80.8283 148.63 83.5582 149.397 86.8605Z" fill="#263238"/>
<path d="M146.721 93.9422C146.842 95.1334 147.29 96.2639 148.012 97.2005C148.963 98.3967 149.886 97.8023 149.993 96.4006C150.085 95.1604 149.702 93.0322 148.573 92.3057C147.444 91.5792 146.586 92.5038 146.721 93.9422Z" fill="#B55B52"/>
<path d="M152.839 84.8425C153.084 85.3686 153.129 85.9708 152.964 86.5296C152.8 87.0884 152.438 87.5628 151.951 87.8586C151.962 88.3985 151.863 88.9348 151.66 89.4324C151.457 89.9299 151.155 90.3776 150.773 90.7461C150.391 91.1146 149.938 91.3956 149.444 91.5708C148.95 91.7459 148.426 91.8113 147.906 91.7627C148.835 91.2857 148.85 89.8547 148.317 88.9374C147.331 87.2422 144.349 85.525 146.514 83.5142C148.168 81.9878 151.93 82.8097 152.839 84.8425Z" fill="#263238"/>
<path d="M151.824 90.2803C151.529 90.1906 151.217 90.1758 150.916 90.2371C150.614 90.2984 150.332 90.4341 150.092 90.6326L150.028 90.6839C149.974 90.7097 149.914 90.715 149.857 90.6989C149.8 90.6828 149.751 90.6464 149.718 90.5962C149.684 90.546 149.67 90.4852 149.676 90.4246C149.682 90.3641 149.708 90.3077 149.751 90.2656C150.047 90.018 150.396 89.8464 150.768 89.7648C151.141 89.6832 151.527 89.6938 151.895 89.796C151.941 89.8081 151.983 89.8339 152.016 89.8702C152.049 89.9066 152.071 89.952 152.079 90.0009C152.087 90.0498 152.081 90.1002 152.063 90.1459C152.044 90.1916 152.012 90.2306 151.973 90.2583C151.926 90.2801 151.874 90.2878 151.824 90.2803Z" fill="#263238"/>
<path d="M135.137 150.984C135.137 150.984 130.545 157.655 126.35 180.493C120.821 204.614 107.469 253.878 107.469 253.878L116.917 256.021C116.917 256.021 136.401 198.655 141.518 181.366C144.745 170.908 148.793 160.74 153.62 150.962L135.137 150.984Z" fill="#263238"/>
<path d="M144.939 150.984C144.939 150.984 146.146 191.471 145.748 210.287C143.96 228.347 144.442 249.702 144.875 256.439H153.947C153.947 256.439 160.335 195.992 162.173 178.453C163.955 161.574 159.334 151.073 159.334 151.073L144.939 150.984Z" fill="#263238"/>
<path opacity="0.3" d="M150.979 171.099C150.454 170.975 147.785 170.197 145.01 166.256C144.222 165.133 142.433 161.391 142.433 161.391C142.785 163.683 143.353 165.935 144.13 168.113C145.258 170.857 149.375 173.081 150.979 171.099Z" fill="black"/>
<path d="M151.896 264.071C151.869 264.068 151.845 264.055 151.827 264.035C151.808 264.014 151.798 263.988 151.796 263.961C151.789 263.935 151.79 263.908 151.801 263.884C151.811 263.86 151.83 263.84 151.853 263.829C151.952 263.785 153.826 262.684 154.692 262.933C154.778 262.952 154.859 262.989 154.93 263.042C155.001 263.095 155.06 263.163 155.104 263.242C155.159 263.325 155.189 263.423 155.189 263.524C155.189 263.625 155.159 263.724 155.104 263.807C154.877 264.137 154.245 264.232 153.528 264.232C152.981 264.225 152.435 264.171 151.896 264.071ZM154.401 263.139C153.652 263.239 152.929 263.488 152.272 263.873C153.265 264.012 154.621 264.005 154.87 263.653C154.926 263.601 154.955 263.528 154.87 263.366C154.845 263.317 154.81 263.274 154.767 263.241C154.724 263.208 154.674 263.185 154.621 263.176H154.38L154.401 263.139Z" fill="#407BFF"/>
<path d="M151.824 264.042C151.805 264.029 151.79 264.011 151.78 263.991C151.77 263.97 151.766 263.947 151.767 263.924C151.767 263.858 151.887 262.376 152.604 261.789C152.701 261.702 152.814 261.638 152.937 261.6C153.059 261.562 153.188 261.552 153.314 261.568C153.662 261.605 153.783 261.789 153.783 261.935C153.882 262.581 152.604 263.755 151.951 264.056H151.895C151.882 264.059 151.87 264.059 151.858 264.056C151.845 264.054 151.834 264.049 151.824 264.042ZM153.243 261.84C153.076 261.844 152.917 261.912 152.796 262.031C152.396 262.512 152.148 263.109 152.086 263.741C152.753 263.33 153.619 262.39 153.563 262.009C153.563 262.009 153.563 261.862 153.307 261.862H153.236L153.243 261.84Z" fill="#407BFF"/>
<path d="M146.558 254.032L151.91 253.298L151.37 263.924H146.019L146.558 254.032Z" fill="#B55B52"/>
<path d="M152.605 263.719C156.225 266.03 157.34 266.133 161.534 267.08C162.45 267.285 161.84 269.589 159.646 269.589C156.012 269.589 155.629 269.406 152.549 269.406C149.894 269.406 146.87 269.538 144.741 269.575C144.675 269.582 144.608 269.582 144.542 269.575C144.344 269.524 144.173 269.395 144.067 269.215C143.96 269.035 143.927 268.819 143.974 268.613L145.025 263.689C145.049 263.583 145.107 263.489 145.189 263.421C145.271 263.353 145.374 263.316 145.479 263.315H151.335C151.786 263.327 152.226 263.466 152.605 263.719Z" fill="#263238"/>
<path opacity="0.2" d="M146.55 254.039L146.273 258.362H151.639L151.909 254.039H146.55Z" fill="black"/>
<path d="M143.534 253.122L143.839 256.593H154.869C154.869 256.593 155.423 252.704 155.38 252.704L143.534 253.122Z" fill="#407BFF"/>
<path d="M107.178 264.005C107.175 264.031 107.164 264.055 107.146 264.074C107.128 264.093 107.104 264.105 107.079 264.108C107.054 264.115 107.027 264.112 107.003 264.1C106.979 264.088 106.961 264.067 106.951 264.042C106.902 263.946 105.844 262.001 106.1 261.106C106.119 261.021 106.155 260.941 106.205 260.871C106.255 260.8 106.318 260.74 106.391 260.695C106.472 260.635 106.57 260.602 106.671 260.602C106.771 260.602 106.87 260.635 106.951 260.695C107.257 260.93 107.342 261.591 107.342 262.324C107.333 262.888 107.278 263.45 107.178 264.005ZM106.305 261.414C106.383 262.185 106.605 262.933 106.958 263.616C107.107 262.589 107.107 261.187 106.767 260.93C106.724 260.871 106.639 260.842 106.483 260.93C106.437 260.957 106.397 260.994 106.367 261.038C106.336 261.083 106.315 261.133 106.305 261.187C106.292 261.269 106.292 261.354 106.305 261.436V261.414Z" fill="#407BFF"/>
<path d="M107.179 264.056C107.168 264.077 107.151 264.093 107.13 264.102C107.11 264.112 107.087 264.114 107.065 264.108C107.008 264.108 105.56 263.976 105.014 263.242C104.931 263.141 104.869 263.024 104.831 262.898C104.793 262.772 104.78 262.639 104.794 262.508C104.829 262.148 105.014 262.023 105.156 262.023C105.759 261.928 106.909 263.264 107.193 263.924V263.976C107.198 264.003 107.193 264.032 107.179 264.056ZM105.049 262.589C105.056 262.757 105.119 262.917 105.227 263.044C105.689 263.458 106.264 263.715 106.873 263.777C106.476 263.088 105.574 262.185 105.212 262.244C105.212 262.244 105.07 262.244 105.07 262.5V262.581L105.049 262.589Z" fill="#407BFF"/>
<path d="M109.549 253.379L114.766 253.79L112.36 264.394L107.129 264.005L109.549 253.379Z" fill="#B55B52"/>
<path opacity="0.2" d="M109.613 253.078L108.556 257.745L113.78 258.134L114.844 253.452L109.613 253.078Z" fill="black"/>
<path d="M105.865 263.3C104.446 265.025 103.736 265.913 99.6192 267.241C98.7178 267.527 99.527 269.766 101.749 269.567C105.369 269.23 103.374 269.237 106.455 268.958C109.095 268.716 112.133 268.569 114.262 268.408C114.335 268.407 114.406 268.395 114.475 268.371C114.672 268.306 114.835 268.162 114.929 267.972C115.024 267.783 115.042 267.562 114.979 267.359L113.503 262.552C113.472 262.447 113.407 262.356 113.319 262.294C113.232 262.233 113.126 262.205 113.02 262.214L107.193 262.75C106.947 262.744 106.703 262.79 106.474 262.885C106.246 262.979 106.039 263.121 105.865 263.3Z" fill="#263238"/>
<path d="M106.341 252.087L106.291 255.58L117.648 256.835C117.648 256.835 118.62 253.026 118.578 253.026L106.341 252.087Z" fill="#407BFF"/>
<path d="M61.7945 103.137L58.6501 103.115L57.7913 101.971L62.6746 102L61.7945 103.137Z" fill="#407BFF"/>
<path opacity="0.5" d="M61.7945 103.137L58.6501 103.115L57.7913 101.971L62.6746 102L61.7945 103.137Z" fill="white"/>
<path d="M67.1749 88.5411C67.1668 89.5208 66.954 90.4871 66.5509 91.3737C66.1478 92.2604 65.5641 93.0465 64.8397 93.6781C64.3544 94.0852 63.9608 94.5968 63.6862 95.1773C63.4116 95.7577 63.2627 96.3931 63.2498 97.0391V97.5601L57.252 97.5161V96.9951C57.2453 96.3509 57.1042 95.7159 56.8384 95.1333C56.5726 94.5507 56.1883 94.0343 55.7118 93.6194C54.9976 92.9828 54.4249 92.1943 54.0329 91.3076C53.6408 90.421 53.4387 89.4573 53.4404 88.4824C53.4474 87.5505 53.6319 86.6291 53.9833 85.7709C54.3347 84.9127 54.8461 84.1345 55.4884 83.4806C56.1307 82.8268 56.8913 82.3102 57.7267 81.9602C58.5621 81.6103 59.456 81.4339 60.3574 81.4411C61.2587 81.4483 62.1499 81.639 62.9799 82.0023C63.81 82.3656 64.5627 82.8944 65.1951 83.5585C65.8275 84.2225 66.3272 85.0089 66.6657 85.8726C67.0042 86.7364 67.1748 87.6606 67.1678 88.5925L67.1749 88.5411Z" fill="#407BFF"/>
<path opacity="0.5" d="M67.1749 88.5411C67.1668 89.5208 66.954 90.4871 66.5509 91.3737C66.1478 92.2604 65.5641 93.0465 64.8397 93.6781C64.3544 94.0852 63.9608 94.5968 63.6862 95.1773C63.4116 95.7577 63.2627 96.3931 63.2498 97.0391V97.5601L57.252 97.5161V96.9951C57.2453 96.3509 57.1042 95.7159 56.8384 95.1333C56.5726 94.5507 56.1883 94.0343 55.7118 93.6194C54.9976 92.9828 54.4249 92.1943 54.0329 91.3076C53.6408 90.421 53.4387 89.4573 53.4404 88.4824C53.4474 87.5505 53.6319 86.6291 53.9833 85.7709C54.3347 84.9127 54.8461 84.1345 55.4884 83.4806C56.1307 82.8268 56.8913 82.3102 57.7267 81.9602C58.5621 81.6103 59.456 81.4339 60.3574 81.4411C61.2587 81.4483 62.1499 81.639 62.9799 82.0023C63.81 82.3656 64.5627 82.8944 65.1951 83.5585C65.8275 84.2225 66.3272 85.0089 66.6657 85.8726C67.0042 86.7364 67.1748 87.6606 67.1678 88.5925L67.1749 88.5411Z" fill="white"/>
<path d="M59.2961 97.5235L58.203 91.9095C58.1979 91.8872 58.1973 91.864 58.2015 91.8415C58.2057 91.819 58.2144 91.7977 58.2272 91.7789C58.2399 91.7602 58.2564 91.7445 58.2755 91.7328C58.2946 91.7212 58.3159 91.7139 58.3379 91.7114C58.3589 91.706 58.3808 91.7052 58.4022 91.7091C58.4235 91.713 58.4438 91.7214 58.4618 91.7338C58.4799 91.7462 58.4952 91.7624 58.5068 91.7813C58.5185 91.8001 58.5262 91.8213 58.5295 91.8434L59.6226 97.4574L59.2961 97.5235Z" fill="#407BFF"/>
<path d="M61.2411 97.5381L60.9075 97.4721L62.0928 91.8728C62.103 91.8285 62.1294 91.79 62.1664 91.7653C62.2035 91.7407 62.2483 91.7319 62.2916 91.7407C62.3133 91.745 62.3339 91.7538 62.3522 91.7666C62.3705 91.7794 62.386 91.7959 62.398 91.8152C62.4099 91.8344 62.418 91.8559 62.4217 91.8784C62.4253 91.9009 62.4245 91.924 62.4193 91.9462L61.2411 97.5381Z" fill="#407BFF"/>
<path d="M60.9712 94.2432L60.2969 93.0103L59.6155 94.2285L58.3521 92.7534L58.6076 92.5333L59.5587 93.6487L60.304 92.3058L61.0351 93.6561L62.0004 92.5553L62.2559 92.7828L60.9712 94.2432Z" fill="#407BFF"/>
<path d="M63.7393 98.4041C63.7266 98.6046 63.6401 98.7924 63.4975 98.9289C63.3549 99.0654 63.1671 99.1402 62.9728 99.1379H62.1991C62.1402 99.1456 62.0805 99.1456 62.0216 99.1379H57.55C57.3542 99.1379 57.1664 99.0575 57.028 98.9144C56.8895 98.7712 56.8118 98.5771 56.8118 98.3747C56.8118 98.1723 56.8895 97.9782 57.028 97.835C57.1664 97.6919 57.3542 97.6115 57.55 97.6115H58.3449C58.3967 97.6039 58.4493 97.6039 58.5011 97.6115H62.9728C63.074 97.6095 63.1745 97.6286 63.2684 97.6678C63.3622 97.7069 63.4475 97.7652 63.5191 97.8392C63.5907 97.9132 63.6471 98.0014 63.6849 98.0984C63.7227 98.1955 63.7413 98.2994 63.7393 98.4041Z" fill="#407BFF"/>
<path d="M63.4621 99.8644C63.4621 100.059 63.3874 100.246 63.2543 100.383C63.1211 100.521 62.9406 100.598 62.7524 100.598H62.0426C61.9908 100.606 61.9382 100.606 61.8864 100.598H57.727C57.6308 100.598 57.5355 100.578 57.447 100.539C57.3584 100.5 57.2786 100.443 57.2122 100.371C57.1458 100.298 57.0942 100.213 57.0607 100.12C57.0272 100.027 57.0124 99.9271 57.0172 99.8277C57.0172 99.6331 57.092 99.4464 57.2251 99.3088C57.3582 99.1712 57.5388 99.0939 57.727 99.0939H58.4368H58.5788H62.7382C62.8356 99.0917 62.9325 99.1104 63.0227 99.1486C63.1128 99.1869 63.1944 99.2439 63.2624 99.3162C63.3303 99.3885 63.3831 99.4745 63.4175 99.5688C63.4518 99.6631 63.467 99.7638 63.4621 99.8644Z" fill="#407BFF"/>
<path d="M63.1713 101.332C63.1718 101.517 63.1049 101.695 62.9838 101.831C62.8628 101.967 62.6965 102.051 62.5183 102.066H61.8511H61.702L57.8549 102.029C57.6704 102.014 57.4989 101.925 57.3769 101.781C57.2549 101.637 57.1921 101.45 57.2019 101.259C57.2012 101.075 57.2672 100.898 57.3868 100.762C57.5063 100.626 57.6709 100.541 57.8478 100.525H58.5576H58.6925H62.5396C62.6323 100.535 62.7223 100.564 62.8042 100.61C62.8862 100.656 62.9586 100.718 63.0172 100.793C63.0759 100.868 63.1197 100.954 63.1461 101.047C63.1726 101.139 63.1811 101.236 63.1713 101.332Z" fill="#407BFF"/>
<path d="M57.6497 102.477V102.059L62.7885 102.088V102.499L57.6497 102.477Z" fill="#407BFF"/>
<path d="M63.2426 97.2886H57.252V97.7069H63.2426V97.2886Z" fill="#407BFF"/>
<g opacity="0.4">
<path d="M54.235 87.2422C54.1273 87.593 54.1006 87.9649 54.1569 88.3283C54.1839 88.4222 54.2385 88.505 54.3133 88.5652C54.388 88.6254 54.479 88.6599 54.5737 88.664C54.6683 88.668 54.7618 88.6414 54.8411 88.5878C54.9204 88.5342 54.9814 88.4563 55.0158 88.365C55.2714 87.689 55.6718 87.0817 56.1869 86.5886C56.7019 86.0955 57.3183 85.7293 57.9898 85.5177C59.0332 85.1948 60.3179 85.1581 60.6444 83.8592C60.6855 83.6239 60.6584 83.3813 60.5664 83.162C59.7075 81.342 55.0726 83.7344 54.235 87.2422Z" fill="white"/>
</g>
<path opacity="0.4" d="M61.3404 83.5363C61.2887 83.7171 61.2873 83.9094 61.3362 84.091C61.3852 84.2727 61.4825 84.4365 61.6172 84.5636C61.8597 84.7466 62.1548 84.8397 62.4548 84.8278C62.6079 84.8505 62.764 84.8386 62.9122 84.793C63.0605 84.7474 63.1974 84.6691 63.3136 84.5636C63.4144 84.4071 63.4681 84.2233 63.4681 84.0353C63.4681 83.8473 63.4144 83.6634 63.3136 83.5069C62.8381 82.4575 61.6598 82.23 61.3404 83.5363Z" fill="white"/>
<path d="M62.6814 104.884V106.807C61.8946 106.904 61.103 106.953 60.3107 106.953C59.516 106.953 58.722 106.904 57.9329 106.807V104.884H62.6814Z" fill="#263238"/>
<path d="M60.3108 262.449V125.351" stroke="#263238" stroke-width="4" stroke-linecap="round" stroke-linejoin="round"/>
<path d="M80.2067 87C80.1783 90.9496 79.0164 94.8016 76.8683 98.0677C74.7201 101.334 71.6824 103.867 68.1402 105.346C66.5505 105.987 65.1812 107.102 64.2066 108.55C63.2321 109.998 62.6964 111.714 62.6678 113.477V125.366H57.9335V113.477C57.9054 111.714 57.3708 110 56.3975 108.552C55.4243 107.104 54.0565 105.988 52.4681 105.346C48.9264 103.866 45.8893 101.333 43.7412 98.0669C41.5932 94.801 40.4309 90.9494 40.4016 87H80.2067Z" fill="#407BFF"/>
<path d="M38.0377 264.453L38.1868 264.577L37.8035 264.519L38.0377 264.453Z" fill="#407BFF"/>
<path d="M83.0456 264.526L82.6694 264.577C82.7195 264.542 82.7669 264.503 82.8114 264.46L83.0456 264.526Z" fill="#407BFF"/>
<path d="M83.0458 264.005C83.0395 264.093 83.0154 264.18 82.975 264.258C82.9347 264.336 82.879 264.405 82.8115 264.46C82.7671 264.503 82.7196 264.542 82.6696 264.577C80.739 266.045 71.5117 267.175 60.4247 267.175C49.3378 267.175 40.1389 266.06 38.1941 264.585L38.045 264.46C37.9775 264.405 37.9219 264.336 37.8815 264.258C37.8412 264.18 37.8171 264.093 37.8108 264.005C37.8108 263.212 39.855 262.493 43.2336 261.935C48.0507 261.131 52.8136 260.011 57.4933 258.582L58.3663 258.325H62.4121L63.342 258.596C67.9767 260.008 72.6948 261.109 77.4668 261.891C80.9164 262.471 83.0458 263.198 83.0458 264.005Z" fill="#263238"/>
<path d="M190.636 98.6683L180.621 95.1458L179.066 90.4124L194.653 95.8796L190.636 98.6683Z" fill="#FFBD59"/>
<path opacity="0.5" d="M190.636 98.6683L180.621 95.1458L179.066 90.4124L194.653 95.8796L190.636 98.6683Z" fill="white"/>
<path d="M223.308 56.4351C222.254 59.619 220.561 62.5369 218.341 64.9978C216.121 67.4587 213.424 69.4072 210.425 70.7158C208.428 71.5495 206.626 72.813 205.137 74.4225C203.649 76.0319 202.51 77.9504 201.794 80.0504L201.226 81.7676L182.111 75.0529L182.672 73.3357C183.339 71.2224 183.565 68.9866 183.333 66.7765C183.102 64.5663 182.42 62.4322 181.331 60.5153C178.955 56.2058 177.934 51.2391 178.409 46.3031C178.885 41.3671 180.833 36.706 183.983 32.9654C187.134 29.2247 191.332 26.5896 195.996 25.4249C200.66 24.2602 205.558 24.6235 210.013 26.4646C215.498 28.7786 219.924 33.1646 222.394 38.7314C224.863 44.2982 225.19 50.6281 223.308 56.4351Z" fill="#FFBD59"/>
<path opacity="0.5" d="M223.308 56.4351C222.254 59.619 220.561 62.5369 218.341 64.9978C216.121 67.4587 213.424 69.4072 210.425 70.7158C208.428 71.5495 206.626 72.813 205.137 74.4225C203.649 76.0319 202.51 77.9504 201.794 80.0504L201.226 81.7676L182.111 75.0529L182.672 73.3357C183.339 71.2224 183.565 68.9866 183.333 66.7765C183.102 64.5663 182.42 62.4322 181.331 60.5153C178.955 56.2058 177.934 51.2391 178.409 46.3031C178.885 41.3671 180.833 36.706 183.983 32.9654C187.134 29.2247 191.332 26.5896 195.996 25.4249C200.66 24.2602 205.558 24.6235 210.013 26.4646C215.498 28.7786 219.924 33.1646 222.394 38.7314C224.863 44.2982 225.19 50.6281 223.308 56.4351Z" fill="white"/>
<path opacity="0.4" d="M211.247 65.1927C215.137 57.8296 212.516 48.6008 205.395 44.5796C198.273 40.5584 189.347 43.2676 185.457 50.6307C181.568 57.9939 184.188 67.2227 191.31 71.2438C198.432 75.265 207.358 72.5558 211.247 65.1927Z" fill="white"/>
<path d="M188.614 77.4012L191.027 57.6753C191.047 57.5199 191.125 57.3788 191.244 57.2826C191.364 57.1864 191.515 57.1429 191.666 57.1616C191.74 57.1716 191.812 57.1966 191.876 57.2352C191.941 57.2738 191.998 57.3253 192.043 57.3866C192.089 57.448 192.122 57.5181 192.142 57.5928C192.161 57.6675 192.166 57.7454 192.156 57.8221L189.742 77.548L188.614 77.4012Z" fill="#FFBD59"/>
<path d="M194.796 79.5954L193.816 79.0084L203.519 61.8362C203.595 61.7023 203.719 61.6048 203.864 61.5649C204.009 61.525 204.163 61.5461 204.293 61.6234C204.359 61.6614 204.416 61.7127 204.463 61.7743C204.509 61.8359 204.543 61.9065 204.562 61.9818C204.581 62.0572 204.585 62.1358 204.574 62.2129C204.564 62.29 204.538 62.3641 204.499 62.4307L194.796 79.5954Z" fill="#FFBD59"/>
<path d="M197.428 68.4189L196.598 63.6122L193.098 66.8925L190.628 60.6401L191.679 60.1925L193.539 64.8964L197.35 61.3079L198.266 66.5549L202.503 63.9938L203.078 65.0065L197.428 68.4189Z" fill="#FFBD59"/>
<path d="M201.871 85.1727C201.652 85.8373 201.186 86.3849 200.577 86.6957C199.968 87.0065 199.264 87.0552 198.621 86.8312L196.151 85.9726C195.955 85.9565 195.761 85.9146 195.576 85.8478L181.302 80.865C180.982 80.7575 180.685 80.5859 180.429 80.36C180.173 80.134 179.962 79.8582 179.81 79.5481C179.657 79.238 179.564 78.8999 179.538 78.5529C179.511 78.206 179.551 77.857 179.655 77.526C179.759 77.1949 179.925 76.8883 180.143 76.6236C180.362 76.3589 180.629 76.1413 180.929 75.9832C181.229 75.8251 181.556 75.7296 181.891 75.7022C182.227 75.6748 182.564 75.716 182.885 75.8234H182.941L185.411 76.6821C185.588 76.6975 185.762 76.7344 185.93 76.7921H185.986L200.26 81.775C200.583 81.8865 200.882 82.0633 201.138 82.2951C201.394 82.5269 201.604 82.8091 201.753 83.1253C201.903 83.4414 201.991 83.7853 202.011 84.1368C202.032 84.4882 201.984 84.8404 201.871 85.1727Z" fill="#FFBD59"/>
<path d="M199.451 89.708C199.359 90.0292 199.206 90.3284 199.001 90.5884C198.796 90.8484 198.544 91.064 198.258 91.2228C197.973 91.3817 197.66 91.4807 197.337 91.5142C197.014 91.5476 196.688 91.5149 196.378 91.4178L194.078 90.6179C193.897 90.6032 193.718 90.5663 193.546 90.5078L180.287 85.8479C179.687 85.5948 179.201 85.1164 178.928 84.5087C178.654 83.9011 178.613 83.209 178.812 82.5713C179.012 81.9335 179.437 81.3972 180.003 81.0699C180.568 80.7426 181.233 80.6485 181.863 80.8063H181.919L184.212 81.6136C184.378 81.6276 184.542 81.6595 184.702 81.709H184.752L198.032 86.3983C198.642 86.6459 199.133 87.1322 199.399 87.7518C199.665 88.3713 199.683 89.0741 199.451 89.708Z" fill="#FFBD59"/>
<path d="M197.002 94.2358C196.843 94.8667 196.45 95.4072 195.908 95.7398C195.365 96.0723 194.718 96.1701 194.106 96.0117L191.977 95.2778C191.808 95.271 191.64 95.2389 191.48 95.1824L179.222 90.8527C178.639 90.5909 178.178 90.1028 177.939 89.4935C177.7 88.8842 177.702 88.2023 177.944 87.5944C178.104 86.9759 178.488 86.4449 179.017 86.1125C179.546 85.7802 180.179 85.6722 180.783 85.8112H180.833L182.963 86.545C183.116 86.5534 183.269 86.5805 183.417 86.6257H183.466L195.725 90.9628C196.311 91.2246 196.775 91.7151 197.014 92.3279C197.253 92.9406 197.249 93.6262 197.002 94.2358Z" fill="#FFBD59"/>
<path d="M178.087 91.9388L178.527 90.5665L194.924 96.2832L194.484 97.6555L178.087 91.9388Z" fill="#FFBD59"/>
<path d="M182.334 74.3752L181.894 75.7399L201.053 82.3369L201.493 80.9723L182.334 74.3752Z" fill="#FFBD59"/>
<g opacity="0.4">
<path d="M183.325 37.9274C182.613 38.9423 182.129 40.1078 181.905 41.3398C181.881 41.6734 181.961 42.0065 182.133 42.2894C182.306 42.5724 182.563 42.7901 182.865 42.9104C183.167 43.0307 183.498 43.0471 183.81 42.9572C184.122 42.8673 184.397 42.6758 184.595 42.4112C186.103 40.4771 188.015 38.9207 190.187 37.8583C192.359 36.7959 194.735 36.255 197.137 36.2762C200.8 36.3569 204.945 37.6485 207.365 33.7297C207.757 33.0062 207.93 32.1781 207.862 31.3521C207.862 31.3521 207.862 31.3521 207.862 31.3007C207.06 24.4832 189.713 27.2719 183.325 37.9274Z" fill="white"/>
</g>
<path opacity="0.4" d="M209.956 33.5096C209.614 34.0492 209.415 34.6725 209.38 35.3167C209.345 35.9609 209.475 36.6032 209.757 37.1789C210.342 38.0335 211.186 38.6612 212.156 38.9621C212.625 39.1961 213.136 39.3237 213.657 39.3364C214.177 39.349 214.694 39.2464 215.173 39.0355C216.266 38.3897 216.592 36.878 216.401 35.5864C215.883 31.6309 212.369 29.5395 209.956 33.5096Z" fill="white"/>
<path d="M181.443 7.34784L189.514 19.0234L181.443 7.34784Z" fill="white"/>
<path d="M181.443 7.34784L189.514 19.0234" stroke="#FFBD59" stroke-width="1.5" stroke-miterlimit="10"/>
<path d="M151.604 25.3418L170.677 34.7571L151.604 25.3418Z" fill="white"/>
<path d="M151.604 25.3418L170.677 34.7571" stroke="#FFBD59" stroke-width="1.5" stroke-miterlimit="10"/>
<path d="M153.748 60.486L168.007 60.9777L153.748 60.486Z" fill="white"/>
<path d="M153.748 60.486L168.007 60.9777" stroke="#FFBD59" stroke-width="1.5" stroke-miterlimit="10"/>
<path d="M240.059 27.9837L226.765 32.1299L240.059 27.9837Z" fill="white"/>
<path d="M240.059 27.9837L226.765 32.1299" stroke="#FFBD59" stroke-width="1.5" stroke-miterlimit="10"/>
<path d="M253.076 61.0657L232.407 56.5012L253.076 61.0657Z" fill="white"/>
<path d="M253.076 61.0657L232.407 56.5012" stroke="#FFBD59" stroke-width="1.5" stroke-miterlimit="10"/>
<path d="M230.64 87.5504L219.056 78.9423L230.64 87.5504Z" fill="white"/>
<path d="M230.64 87.5504L219.056 78.9423" stroke="#FFBD59" stroke-width="1.5" stroke-miterlimit="10"/>
<path d="M284.002 44.0771L286.245 44.0918L286.862 44.9357L283.37 44.9137L284.002 44.0771Z" fill="#407BFF"/>
<path opacity="0.5" d="M284.002 44.0771L286.245 44.0918L286.862 44.9357L283.37 44.9137L284.002 44.0771Z" fill="white"/>
<path d="M280.155 54.8353C280.161 54.1218 280.313 53.4177 280.6 52.7689C280.888 52.1202 281.304 51.5415 281.823 51.0707C282.17 50.7645 282.451 50.3859 282.646 49.9597C282.842 49.5335 282.948 49.0693 282.958 48.5976V48.2086H287.217V48.5976C287.219 49.0692 287.319 49.5349 287.508 49.9639C287.698 50.3928 287.974 50.7751 288.317 51.0853C289.062 51.7895 289.578 52.7138 289.796 53.7324C290.013 54.7509 289.922 55.8141 289.534 56.777C289.146 57.7398 288.48 58.5556 287.627 59.1129C286.774 59.6703 285.776 59.9422 284.768 59.8915C283.527 59.7997 282.363 59.2291 281.509 58.2928C280.654 57.3564 280.171 56.1225 280.155 54.8353Z" fill="#407BFF"/>
<path opacity="0.5" d="M280.155 54.8353C280.161 54.1218 280.313 53.4177 280.6 52.7689C280.888 52.1202 281.304 51.5415 281.823 51.0707C282.17 50.7645 282.451 50.3859 282.646 49.9597C282.842 49.5335 282.948 49.0693 282.958 48.5976V48.2086H287.217V48.5976C287.219 49.0692 287.319 49.5349 287.508 49.9639C287.698 50.3928 287.974 50.7751 288.317 51.0853C289.062 51.7895 289.578 52.7138 289.796 53.7324C290.013 54.7509 289.922 55.8141 289.534 56.777C289.146 57.7398 288.48 58.5556 287.627 59.1129C286.774 59.6703 285.776 59.9422 284.768 59.8915C283.527 59.7997 282.363 59.2291 281.509 58.2928C280.654 57.3564 280.171 56.1225 280.155 54.8353Z" fill="white"/>
<path d="M285.784 48.216L286.571 52.3549C286.578 52.387 286.572 52.4204 286.554 52.4478C286.537 52.4753 286.51 52.4946 286.479 52.5017C286.448 52.5059 286.417 52.4976 286.392 52.4784C286.367 52.4593 286.35 52.4308 286.344 52.3989L285.549 48.26L285.784 48.216Z" fill="#407BFF"/>
<path d="M284.393 48.2013L284.634 48.2526L283.789 52.3696C283.783 52.4015 283.764 52.4295 283.737 52.4473C283.711 52.4652 283.679 52.4715 283.648 52.465C283.632 52.4624 283.617 52.4565 283.603 52.4475C283.59 52.4386 283.578 52.4268 283.57 52.4129C283.561 52.3991 283.555 52.3835 283.553 52.3671C283.55 52.3508 283.551 52.3341 283.555 52.3182L284.393 48.2013Z" fill="#407BFF"/>
<path d="M284.584 50.6303L285.066 51.5403L285.556 50.6377L286.457 51.7311L286.273 51.8926L285.599 51.0707L285.059 52.0614L284.541 51.0633L283.853 51.8706L283.668 51.7091L284.584 50.6303Z" fill="#407BFF"/>
<path d="M282.611 47.5629C282.613 47.4143 282.672 47.2724 282.774 47.168C282.876 47.0636 283.014 47.0051 283.158 47.0051H283.712C283.751 46.9976 283.792 46.9976 283.832 47.0051H287.026C287.16 47.0209 287.283 47.0869 287.372 47.1904C287.461 47.2939 287.511 47.4278 287.511 47.5665C287.511 47.7053 287.461 47.8391 287.372 47.9427C287.283 48.0462 287.16 48.1121 287.026 48.1279H286.466H286.352H283.158C283.086 48.1289 283.014 48.115 282.948 48.0869C282.881 48.0589 282.82 48.0173 282.769 47.9646C282.718 47.912 282.678 47.8493 282.651 47.7803C282.624 47.7113 282.61 47.6373 282.611 47.5629Z" fill="#407BFF"/>
<path d="M282.809 46.4988C282.805 46.356 282.856 46.2173 282.951 46.113C283.045 46.0086 283.175 45.9468 283.313 45.9411H283.831C283.869 45.9333 283.908 45.9333 283.945 45.9411H286.919C287.064 45.9411 287.203 46.0006 287.305 46.1066C287.408 46.2125 287.466 46.3563 287.466 46.5061C287.466 46.656 287.408 46.7997 287.305 46.9057C287.203 47.0117 287.064 47.0712 286.919 47.0712H286.387H286.287H283.32C283.25 47.0704 283.18 47.0546 283.116 47.025C283.051 46.9954 282.993 46.9525 282.946 46.8989C282.898 46.8453 282.861 46.7822 282.837 46.7134C282.814 46.6446 282.804 46.5715 282.809 46.4988Z" fill="#407BFF"/>
<path d="M283.001 45.4053C282.995 45.2679 283.041 45.1334 283.128 45.0296C283.215 44.9258 283.338 44.8606 283.47 44.8476H283.917C283.952 44.8404 283.988 44.8404 284.024 44.8476H286.778C286.911 44.8606 287.034 44.9271 287.12 45.0327C287.206 45.1384 287.249 45.2748 287.239 45.4126C287.249 45.5486 287.207 45.6831 287.122 45.7873C287.037 45.8916 286.916 45.9573 286.785 45.9704H286.295H286.203H283.456C283.325 45.9538 283.205 45.8861 283.12 45.781C283.036 45.676 282.993 45.5416 283.001 45.4053Z" fill="#407BFF"/>
<path d="M286.961 44.5614V44.8696L283.292 44.8476V44.5467L286.961 44.5614Z" fill="#407BFF"/>
<path d="M287.246 48.0839H282.959V48.3921H287.246V48.0839Z" fill="#407BFF"/>
<g opacity="0.4">
<path d="M289.396 55.7967C289.473 55.5431 289.495 55.2748 289.46 55.0114C289.439 54.944 289.399 54.885 289.344 54.8431C289.289 54.8012 289.223 54.7786 289.154 54.7786C289.086 54.7786 289.02 54.8012 288.965 54.8431C288.91 54.885 288.869 54.944 288.849 55.0114C288.671 55.5052 288.387 55.9507 288.018 56.3142C287.649 56.6778 287.205 56.95 286.72 57.1103C286.01 57.3524 285.059 57.3818 284.832 58.3358C284.799 58.5083 284.816 58.6871 284.881 58.8495C285.492 60.1411 288.799 58.3798 289.396 55.7967Z" fill="white"/>
</g>
<path opacity="0.4" d="M284.321 58.5266C284.356 58.3972 284.356 58.2603 284.321 58.1309C284.286 58.0015 284.218 57.8845 284.123 57.7927C283.95 57.6631 283.74 57.5961 283.526 57.602C283.417 57.5866 283.306 57.5957 283.201 57.6286C283.096 57.6615 282.999 57.7175 282.916 57.7927C282.845 57.9094 282.808 58.0442 282.808 58.1817C282.808 58.3192 282.845 58.454 282.916 58.5706C283.25 59.3118 284.094 59.4879 284.321 58.5266Z" fill="white"/>
<path d="M286.756 26.3692H283.363V41.4572H286.756V26.3692Z" fill="#263238"/>
<path d="M285.06 1.14677V26.3692" stroke="#263238" stroke-linecap="round" stroke-linejoin="round"/>
<path d="M283.356 37.6559H286.798" stroke="white" stroke-linecap="round" stroke-linejoin="round"/>
<path d="M270.835 54.6518C270.835 50.7515 272.334 47.0108 275.001 44.2529C277.669 41.4949 281.287 39.9455 285.059 39.9455C288.832 39.9455 292.45 41.4949 295.117 44.2529C297.785 47.0108 299.283 50.7515 299.283 54.6518H270.835Z" fill="#263238"/>
</svg>
